<?xml version="1.0" encoding="UTF-8" standalone="no"?>
<svg
   id="DESIGN"
   viewBox="0 0 507.75799 500.71563"
   version="1.1"
   sodipodi:docname="Artrix SYMBOL 4.svg"
   width="507.758"
   height="500.71564"
   inkscape:version="1.3.2 (091e20e, 2023-11-25, custom)"
   xmlns:inkscape="http://www.inkscape.org/namespaces/inkscape"
   xmlns:sodipodi="http://sodipodi.sourceforge.net/DTD/sodipodi-0.dtd"
   xmlns="http://www.w3.org/2000/svg"
   xmlns:svg="http://www.w3.org/2000/svg">
  <sodipodi:namedview
     id="namedview7"
     pagecolor="#505050"
     bordercolor="#eeeeee"
     borderopacity="1"
     inkscape:showpageshadow="0"
     inkscape:pageopacity="0"
     inkscape:pagecheckerboard="0"
     inkscape:deskcolor="#505050"
     inkscape:zoom="0.84689616"
     inkscape:cx="254.45859"
     inkscape:cy="250.91624"
     inkscape:window-width="1920"
     inkscape:window-height="1009"
     inkscape:window-x="-8"
     inkscape:window-y="-8"
     inkscape:window-maximized="1"
     inkscape:current-layer="DESIGN" />
  <defs
     id="defs5">
    <style
       id="style1">.cls-1{fill:url(#linear-gradient);}.cls-2{fill:#09090b;}</style>
    <linearGradient
       id="linear-gradient"
       x1="479.98801"
       y1="730.34601"
       x2="479.98801"
       y2="229.63"
       gradientUnits="userSpaceOnUse"
       gradientTransform="translate(-226.107,-229.62835)">
      <stop
         offset="0"
         stop-color="#4e76e3"
         id="stop1" />
      <stop
         offset="0.226"
         stop-color="#ffafff"
         id="stop2" />
      <stop
         offset="0.466"
         stop-color="#ffb7b2"
         id="stop3" />
      <stop
         offset="0.712"
         stop-color="#67ab22"
         id="stop4" />
      <stop
         offset="1"
         stop-color="#1189b7"
         id="stop5" />
    </linearGradient>
  </defs>
  <path
     class="cls-1"
     d="m 500.003,483.11365 -73.878,-167.6 -72.227,-163.861 v 0 l -6.705,-15.219 -26.317,-59.7 -20.459,-46.4 A 50.223,50.223 0 0 0 253.893,0.00165041 V 12.54565 a 37.786,37.786 0 0 1 35.047,22.851 l 20.458,46.4 26.026,59.038 a 102.391,102.391 0 0 0 -76.433,53.988 l -1.425,2.728 v 0.13 c -0.722,1.45 -1.426,2.993 -2.153,4.719 l -0.986,2.336 v 0.068 l -1.167,2.643 -4.364,9.9 -2.231,5.061 0.381,0.864 -93.865,212.9 a 87.178,87.178 0 0 1 -79.771,52.01 H 19.239 l 179.147,-406.386 20.45,-46.395 a 37.791,37.791 0 0 1 35.051,-22.855 v 0 -12.54399959 0 A 50.225,50.225 0 0 0 207.359,30.34065 l -20.45,46.4 -179.149,406.373 -7.76,17.6 h 73.406 a 99.767,99.767 0 0 0 91.25,-59.493 l 89.237,-202.406 45.118,102.323 44.112,100.078 a 99.764,99.764 0 0 0 91.253,59.5 h 73.382 z m -65.623,5.06 a 87.179,87.179 0 0 1 -79.774,-52.018 l -44.113,-100.079 -49.742,-112.805 4.626,-10.492 1.212,-2.735 1.075,-2.427 v -0.2 c 0.619,-1.461 1.2,-2.739 1.8,-3.925 l 1.324,-2.649 v 0 l 0.008,-0.017 v 0 a 88.854,88.854 0 0 1 66.628,-46.9 l 3.552,-0.488 73.671,167.133 73.877,167.6 z"
     id="path5"
     style="fill:url(#linear-gradient)" />
  <path
     class="cls-2"
     d="m 414.647,320.57165 -73.966,-167.8 -3.353,0.462 a 89.552,89.552 0 0 0 -67.221,47.4 v 0.02 l -1.269,2.531 c -0.618,1.234 -1.226,2.565 -1.87,4.092 v 0.179 l -2.238,5.065 -4.36,9.889 50.123,113.667 44.113,100.079 a 87.179,87.179 0 0 0 79.774,52.016 h 54.144 z"
     id="path6" />
  <path
     class="cls-2"
     d="m 335.712,141.49365 a 101.683,101.683 0 0 0 -77.314,56.036 2.33,2.33 0 0 0 -0.139,0.3 c 0,0.017 -0.017,0.035 -0.017,0.052 -1.152,2.3 -2.163,4.657 -3.122,7.063 v 0.018 l -1.221,2.756 -100.722,228.445 a 87.179,87.179 0 0 1 -79.771,52.01 H 19.239 l 179.147,-406.378 20.45,-46.395 c 13.432,-30.4719996 56.665,-30.4739996 70.1,0 l 20.458,46.4 z"
     id="path7" />
</svg>
