<?xml version="1.0" encoding="UTF-8" standalone="no"?>
<svg
   viewBox="0 0 959.976 959.976"
   color="transparent"
   version="1.1"
   id="svg33"
   sodipodi:docname="LogoOutline.svg"
   inkscape:version="1.4 (e7c3feb100, 2024-10-09)"
   xmlns:inkscape="http://www.inkscape.org/namespaces/inkscape"
   xmlns:sodipodi="http://sodipodi.sourceforge.net/DTD/sodipodi-0.dtd"
   xmlns="http://www.w3.org/2000/svg"
   xmlns:svg="http://www.w3.org/2000/svg">
  <sodipodi:namedview
     id="namedview33"
     pagecolor="#ffffff"
     bordercolor="#000000"
     borderopacity="0.25"
     inkscape:showpageshadow="2"
     inkscape:pageopacity="0.0"
     inkscape:pagecheckerboard="0"
     inkscape:deskcolor="#d1d1d1"
     inkscape:zoom="1.4142136"
     inkscape:cx="43.84062"
     inkscape:cy="134.35029"
     inkscape:window-width="2560"
     inkscape:window-height="1440"
     inkscape:window-x="0"
     inkscape:window-y="0"
     inkscape:window-maximized="1"
     inkscape:current-layer="svg33" />
  <defs
     id="defs31">
    <linearGradient
       id="linear-gradient"
       x1="224.53353"
       y1="483.34979"
       x2="728.75806"
       y2="483.34979"
       gradientTransform="matrix(1.9038527,0,0,1.8774471,-427.47875,-420.81116)"
       gradientUnits="userSpaceOnUse">
      <stop
         offset="0%"
         stop-color="#FF0000"
         stop-opacity="1"
         id="stop1" />
      <stop
         offset="3.3333333333333335%"
         stop-color="#FF1A1A"
         stop-opacity="1"
         id="stop2" />
      <stop
         offset="6.666666666666667%"
         stop-color="#FF4050"
         stop-opacity="1"
         id="stop3" />
      <stop
         offset="10%"
         stop-color="#FF6666"
         stop-opacity="1"
         id="stop4" />
      <stop
         offset="13.333333333333334%"
         stop-color="#FF8533"
         stop-opacity="1"
         id="stop5" />
      <stop
         offset="16.666666666666668%"
         stop-color="#FF851B"
         stop-opacity="1"
         id="stop6" />
      <stop
         offset="20%"
         stop-color="#FFA366"
         stop-opacity="1"
         id="stop7" />
      <stop
         offset="23.333333333333332%"
         stop-color="#FFD700"
         stop-opacity="1"
         id="stop8" />
      <stop
         offset="26.666666666666668%"
         stop-color="#FFE44D"
         stop-opacity="1"
         id="stop9" />
      <stop
         offset="30%"
         stop-color="#FFEB99"
         stop-opacity="1"
         id="stop10" />
      <stop
         offset="33.333333333333336%"
         stop-color="#BFFF00"
         stop-opacity="1"
         id="stop11" />
      <stop
         offset="36.666666666666664%"
         stop-color="#CCFF33"
         stop-opacity="1"
         id="stop12" />
      <stop
         offset="40%"
         stop-color="#32CD32"
         stop-opacity="1"
         id="stop13" />
      <stop
         offset="43.333333333333336%"
         stop-color="#00FF00"
         stop-opacity="1"
         id="stop14" />
      <stop
         offset="46.666666666666664%"
         stop-color="#00FF66"
         stop-opacity="1"
         id="stop15" />
      <stop
         offset="50%"
         stop-color="#00FA9A"
         stop-opacity="1"
         id="stop16" />
      <stop
         offset="53.333333333333336%"
         stop-color="#00FFB3"
         stop-opacity="1"
         id="stop17" />
      <stop
         offset="56.666666666666664%"
         stop-color="#40E0D0"
         stop-opacity="1"
         id="stop18" />
      <stop
         offset="60%"
         stop-color="#00BFFF"
         stop-opacity="1"
         id="stop19" />
      <stop
         offset="63.333333333333336%"
         stop-color="#33CCFF"
         stop-opacity="1"
         id="stop20" />
      <stop
         offset="66.66666666666667%"
         stop-color="#1E90FF"
         stop-opacity="1"
         id="stop21" />
      <stop
         offset="70%"
         stop-color="#0066FF"
         stop-opacity="1"
         id="stop22" />
      <stop
         offset="73.33333333333333%"
         stop-color="#0000FF"
         stop-opacity="1"
         id="stop23" />
      <stop
         offset="76.66666666666667%"
         stop-color="#6600FF"
         stop-opacity="1"
         id="stop24" />
      <stop
         offset="80%"
         stop-color="#9370DB"
         stop-opacity="1"
         id="stop25" />
      <stop
         offset="83.33333333333333%"
         stop-color="#9933FF"
         stop-opacity="1"
         id="stop26" />
      <stop
         offset="86.66666666666667%"
         stop-color="#FF69B4"
         stop-opacity="1"
         id="stop27" />
      <stop
         offset="90%"
         stop-color="#FF1493"
         stop-opacity="1"
         id="stop28" />
      <stop
         offset="93.33333333333333%"
         stop-color="#FF00FF"
         stop-opacity="1"
         id="stop29" />
      <stop
         offset="96.66666666666667%"
         stop-color="#FF0066"
         stop-opacity="1"
         id="stop30" />
      <stop
         offset="100%"
         stop-color="#FF0033"
         stop-opacity="1"
         id="stop31" />
    </linearGradient>
  </defs>
  <path
     style="fill:url(#linear-gradient);stroke-width:1.89069"
     fill="url(#linear-gradient)"
     width="10"
     d="M 945.30748,926.70163 805.63344,609.83638 669.08094,300.04021 v 0 L 656.40446,271.26703 606.64925,158.39795 567.96963,70.673875 A 94.951789,94.951789 0 0 0 480.01098,13.328173 v 23.715723 a 71.43836,71.43836 0 0 1 66.2602,43.202171 l 38.67774,87.724063 49.20495,111.61755 A 193.58093,193.58093 0 0 0 489.64945,381.65751 l -2.69411,5.15765 v 0.24564 c -1.36522,2.74147 -2.69596,5.65858 -4.07063,8.92175 l -1.86402,4.41647 v 0.12816 l -2.20632,4.99711 -8.25063,18.717 -4.21795,9.56816 0.7202,1.63349 -177.46136,402.50953 A 164.81905,164.81905 0 0 1 138.78927,936.28282 H 36.373356 L 375.06928,167.9682 413.7322,80.253561 a 71.447811,71.447811 0 0 1 66.26749,-43.209727 v 0 -23.715716 0 A 94.955583,94.955583 0 0 0 392.03374,70.68727 L 353.37084,158.4111 14.671134,926.70159 0,959.97609 h 138.78174 a 188.61988,188.61988 0 0 0 172.51757,-112.4775 l 168.71167,-382.66974 85.30036,193.45245 83.3984,189.2076 a 188.61419,188.61419 0 0 0 172.52322,112.49098 h 138.73622 z m -124.067,9.5663 A 164.82093,164.82093 0 0 1 670.4195,837.92262 l -83.40026,-189.20973 -94.04252,-213.26966 8.74592,-19.83605 2.29145,-5.17083 2.03235,-4.58856 v -0.37815 c 1.17049,-2.7622 2.26881,-5.17835 3.40323,-7.42051 l 2.50313,-5.00844 v 0 l 0.0151,-0.0321 v 0 a 167.9877,167.9877 0 0 1 125.96706,-88.66941 l 6.71545,-0.92244 139.28266,315.98212 139.67216,316.86525 z"
     id="path31" />
  <path
     fill="currentColor"
     d="m 783.9331,619.39889 -139.84018,-317.24311 -6.33947,0.87344 A 169.30736,169.30736 0 0 0 510.66542,392.6437 v 0.0377 l -2.39919,4.78516 c -1.16861,2.33293 -2.3181,4.84926 -3.53548,7.73621 v 0.33853 l -4.23114,9.57572 -8.24307,18.69624 94.7627,214.89936 83.40026,189.20973 a 164.82093,164.82093 0 0 0 150.82098,98.34153 h 102.36478 z"
     id="path32"
     style="stroke-width:1.89069" />
  <path
     fill="currentColor"
     d="m 634.69846,280.83359 a 192.24238,192.24238 0 0 0 -146.17025,105.94172 4.4051073,4.4051073 0 0 0 -0.26283,0.56718 c 0,0.0321 -0.0321,0.0659 -0.0321,0.0981 -2.17807,4.34833 -4.08951,8.80464 -5.90261,13.35332 v 0.0338 l -2.30841,5.21069 -190.42519,431.8989 A 164.82093,164.82093 0 0 1 138.78172,936.26761 H 36.37333 L 375.06926,167.96812 413.73218,80.253481 c 25.39446,-57.610439 107.13106,-57.61421 132.53116,0 l 38.678,87.724069 z"
     id="path33"
     style="stroke-width:1.89069" />
</svg>
